FFmpeg version SVN-r25716, Copyright (c) 2000-2010 the FFmpeg developers  built on Nov 10 2010 12:23:18 with gcc 4.1.2 20080704 (Red Hat 4.1.2-48)  configuration: --enable-libmp3lame --enable-shared --disable-mmx --arch=x86_64  libavutil     50.33. 0 / 50.33. 0  libavcore      0.12. 1 /  0.12. 1  libavcodec    52.94. 4 / 52.94. 4  libavformat   52.84. 0 / 52.84. 0  libavdevice   52. 2. 2 / 52. 2. 2  libavfilter    1.59. 0 /  1.59. 0  libswscale     0.12. 0 /  0.12. 0Input #0, avi, from '/RAID10/data/converted_video_files/47594.avi':  Duration: 00:00:09.70, start: 0.000000, bitrate: 188242 kb/s    Stream #0.0: Video: msvideo1, rgb555le, 1024x1024, 20 tbr, 20 tbn, 20 tbc[buffer @ 0xab8d440] w:1024 h:1024 pixfmt:rgb555le[ffsink @ 0xabaad50] auto-inserting filter 'auto-inserted scaler 0' between the filter 'src' and the filter 'out'[scale @ 0xabab040] w:1024 h:1024 fmt:rgb555le -> w:1024 h:1024 fmt:yuv420p flags:0x4Output #0, flv, to '/RAID10/data/converted_video_files/47594.flv':  Metadata:    encoder         : Lavf52.84.0    Stream #0.0: Video: flv, yuv420p, 1024x1024, q=2-31, 600 kb/s, 1k tbn, 24 tbcStream mapping:  Stream #0.0 -> #0.0Press [q] to stop encodingframe=    7 fps=  0 q=11.2 size=    1260kB time=0.33 bitrate=30896.9kbits/s    frame=   13 fps= 11 q=26.0 size=    1401kB time=0.62 bitrate=18359.8kbits/s    frame=   21 fps= 12 q=31.0 size=    1454kB time=1.04 bitrate=11431.7kbits/s    frame=   28 fps= 13 q=31.0 size=    1472kB time=1.38 bitrate=8772.5kbits/s    frame=   37 fps= 14 q=31.0 size=    1519kB time=1.83 bitrate=6783.0kbits/s    frame=   46 fps= 14 q=31.0 size=    1569kB time=2.29 bitrate=5606.6kbits/s    frame=   55 fps= 15 q=31.0 size=    1589kB time=2.75 bitrate=4734.8kbits/s    frame=   64 fps= 15 q=31.0 size=    1641kB time=3.21 bitrate=4188.0kbits/s    frame=   74 fps= 15 q=31.0 size=    1688kB time=3.71 bitrate=3729.0kbits/s    frame=   84 fps= 16 q=31.0 size=    1739kB time=4.21 bitrate=3384.9kbits/s    frame=   94 fps= 16 q=31.0 size=    1799kB time=4.71 bitrate=3129.9kbits/s    frame=  101 fps= 16 q=31.0 size=    1809kB time=5.04 bitrate=2940.5kbits/s    frame=  112 fps= 16 q=31.0 size=    1860kB time=5.58 bitrate=2728.7kbits/s    frame=  121 fps= 16 q=31.0 size=    1909kB time=6.04 bitrate=2588.4kbits/s    frame=  130 fps= 16 q=31.0 size=    1962kB time=6.50 bitrate=2472.3kbits/s    frame=  135 fps= 16 q=31.0 size=    1976kB time=6.75 bitrate=2397.6kbits/s    frame=  141 fps= 16 q=31.0 size=    2016kB time=7.04 bitrate=2344.7kbits/s    frame=  151 fps= 16 q=31.0 size=    2034kB time=7.54 bitrate=2208.9kbits/s    frame=  160 fps= 16 q=31.0 size=    2082kB time=8.00 bitrate=2132.4kbits/s    frame=  169 fps= 16 q=31.0 size=    2128kB time=8.46 bitrate=2061.2kbits/s    frame=  176 fps= 16 q=24.8 size=    2168kB time=8.79 bitrate=2020.1kbits/s    frame=  187 fps= 16 q=31.0 size=    2189kB time=9.33 bitrate=1920.9kbits/s    frame=  194 fps= 16 q=31.0 Lsize=    2230kB time=9.71 bitrate=1881.7kbits/s    video:2227kB audio:0kB global headers:0kB muxing overhead 0.145339%